<svg xmlns="http://www.w3.org/2000/svg" xmlns:xlink="http://www.w3.org/1999/xlink" width="20" height="20" viewBox="0 0 20 20">
  <defs>
    <style>
      .cls-1 {
        fill: url(#linear-gradient);
      }

      .cls-2 {
        fill: #fff;
        stroke: #fff;
        stroke-width: 0.2px;
      }
    </style>
    <linearGradient id="linear-gradient" x1="0.5" y1="1" x2="0.431" gradientUnits="objectBoundingBox">
      <stop offset="0" stop-color="#f3d616"/>
      <stop offset="1" stop-color="#d6dc2d"/>
    </linearGradient>
  </defs>
  <g id="决策" transform="translate(-1117 -15)">
    <circle id="椭圆_7" data-name="椭圆 7" class="cls-1" cx="10" cy="10" r="10" transform="translate(1117 15)"/>
    <g id="组_62" data-name="组 62" transform="translate(1121.676 20.398)">
      <path id="联合_7" data-name="联合 7" class="cls-2" d="M.212,10.621A.217.217,0,0,1,0,10.4V.221A.217.217,0,0,1,.212,0H7.394a.216.216,0,0,1,.211.221.216.216,0,0,1-.211.221H.423v9.736H10.26V3.844a.212.212,0,1,1,.423,0V10.4a.216.216,0,0,1-.212.221ZM1.7,9.587a.228.228,0,0,1,.069-.246l2.01-1.659a.2.2,0,0,1,.259,0L5.693,9l2.62-2.739a.2.2,0,0,1,.248-.039.225.225,0,0,1,.106.238l-.106.553a.223.223,0,0,1-.088.143.205.205,0,0,1-.159.036.215.215,0,0,1-.156-.139l-2.3,2.4a.2.2,0,0,1-.277.02L3.914,8.135,2.033,9.684a.205.205,0,0,1-.129.052A.212.212,0,0,1,1.7,9.587Zm.144-3.649a.221.221,0,0,1,0-.443H4.443a.221.221,0,0,1,0,.443Zm4.275-.388a.226.226,0,0,1-.076-.2L6.3,3a.225.225,0,0,1,.062-.132L8.991.111a.207.207,0,0,1,.3,0l1.648,1.725a.228.228,0,0,1,0,.312L8.3,4.9a.2.2,0,0,1-.086.054l-1.9.631a.186.186,0,0,1-.058.011h0A.206.206,0,0,1,6.122,5.549Zm.586-2.425L6.5,5.064l1.542-.511L10.49,1.991,9.141.58ZM1.848,4.168a.221.221,0,0,1,0-.443H4.443a.221.221,0,0,1,0,.443Zm0-1.77a.221.221,0,0,1,0-.443H4.443a.221.221,0,0,1,0,.443Z" transform="translate(0.323 -0.399)"/>
    </g>
  </g>
</svg>
