<svg xmlns="http://www.w3.org/2000/svg" xmlns:xlink="http://www.w3.org/1999/xlink" width="20" height="20" viewBox="0 0 20 20">
  <defs>
    <style>
      .cls-1 {
        fill: url(#linear-gradient);
      }

      .cls-2 {
        fill: #fff;
      }
    </style>
    <linearGradient id="linear-gradient" x1="0.452" y1="1.028" x2="0.452" gradientUnits="objectBoundingBox">
      <stop offset="0" stop-color="#fa5500"/>
      <stop offset="1" stop-color="#ff7575"/>
    </linearGradient>
  </defs>
  <g id="材料" transform="translate(-968 -15)">
    <circle id="椭圆_6" data-name="椭圆 6" class="cls-1" cx="10" cy="10" r="10" transform="translate(968 15)"/>
    <path id="路径_57" data-name="路径 57" class="cls-2" d="M7.872,2.613H4.742a.261.261,0,0,1-.253-.325L5.011.2A.261.261,0,0,1,5.263,0H7.35A.261.261,0,0,1,7.6.2l.523,2.091a.261.261,0,0,1-.254.325Zm-2.8-.523H7.538L7.146.523H5.467Zm.708,3.659H2.655A.261.261,0,0,1,2.4,5.425l.523-2.091a.261.261,0,0,1,.252-.2H5.263a.261.261,0,0,1,.253.2l.523,2.091a.261.261,0,0,1-.255.325Zm-2.8-.523H5.45L5.058,3.659H3.38Zm6.97.523H6.829a.261.261,0,0,1-.253-.325L7.1,3.334a.261.261,0,0,1,.251-.2H9.437a.261.261,0,0,1,.253.2l.523,2.091a.261.261,0,0,1-.254.325Zm-2.8-.523H9.626L9.234,3.659H7.554ZM3.7,8.885H.568a.261.261,0,0,1-.253-.325L.838,6.47a.261.261,0,0,1,.252-.2H3.176a.261.261,0,0,1,.253.2l.523,2.091a.261.261,0,0,1-.254.325ZM.9,8.363H3.364L2.972,6.795H1.293Zm6.97.523H4.742a.261.261,0,0,1-.253-.325L5.011,6.47a.261.261,0,0,1,.252-.2H7.35a.261.261,0,0,1,.253.2l.523,2.091a.261.261,0,0,1-.254.325Zm-2.8-.523H7.538L7.146,6.795H5.467Zm6.97.523H8.915a.261.261,0,0,1-.253-.325L9.185,6.47a.261.261,0,0,1,.252-.2h2.087a.261.261,0,0,1,.253.2L12.3,8.561a.261.261,0,0,1-.254.325Zm-2.8-.523h2.463l-.392-1.568H9.641Zm3.058,2.091h-12V9.931h12v.523Z" transform="translate(971.691 20)"/>
  </g>
</svg>
