<svg xmlns="http://www.w3.org/2000/svg" xmlns:xlink="http://www.w3.org/1999/xlink" width="20" height="20" viewBox="0 0 20 20">
  <defs>
    <style>
      .cls-1 {
        fill: url(#linear-gradient);
      }

      .cls-2 {
        fill: #fff;
        stroke: #fff;
        stroke-width: 0.5px;
      }
    </style>
    <linearGradient id="linear-gradient" x1="0.434" y1="1" x2="0.466" gradientUnits="objectBoundingBox">
      <stop offset="0" stop-color="#fa7800"/>
      <stop offset="1" stop-color="#ff9a78"/>
    </linearGradient>
  </defs>
  <g id="系统管理" transform="translate(-232 -15)">
    <circle id="椭圆_1" data-name="椭圆 1" class="cls-1" cx="10" cy="10" r="10" transform="translate(232 15)"/>
    <path id="路径_4" data-name="路径 4" class="cls-2" d="M108.891,101.417a.26.26,0,0,0-.288-.065c-.491.165-.957-.366-1.195-.734-.26-.4-.556-1.2-.127-1.593a.269.269,0,0,0,.069-.331.3.3,0,0,0-.131-.159l-2.385-1.476a.275.275,0,0,0-.24-.034.26.26,0,0,0-.212.22c-.113.552-.866.681-1.324.69s-1.214-.149-1.324-.69a.26.26,0,0,0-.263-.225.3.3,0,0,0-.188.038l-2.412,1.336a.265.265,0,0,0-.073.043.311.311,0,0,0-.031.468.266.266,0,0,0,.03.029c.4.407.086,1.161-.154,1.566-.222.374-.714.9-1.195.734a.262.262,0,0,0-.32.107.305.305,0,0,0-.069.194l-.067,2.833a.281.281,0,0,0,.1.235.26.26,0,0,0,.289.067c.491-.165.957.366,1.195.734.26.4.556,1.2.127,1.593a.269.269,0,0,0-.068.332.3.3,0,0,0,.131.158l2.385,1.476a.275.275,0,0,0,.239.034.26.26,0,0,0,.213-.221c.113-.552.866-.681,1.324-.689s1.214.148,1.324.689a.26.26,0,0,0,.264.225.3.3,0,0,0,.188-.038l2.451-1.358a.277.277,0,0,0,.15-.209.269.269,0,0,0-.088-.281c-.439-.4-.12-1.179.127-1.593.222-.374.714-.9,1.195-.734a.262.262,0,0,0,.32-.107.3.3,0,0,0,.069-.194l.067-2.833A.28.28,0,0,0,108.891,101.417Zm-.572,2.707c-1.24.015-2.372,2.007-1.786,3.112l-1.828,1.013a2.358,2.358,0,0,0-3.55-.015l-1.778-1.1a2.418,2.418,0,0,0-1.761-3.127l.05-2.111c1.24-.015,2.372-2.007,1.786-3.112l1.828-1.013a2.358,2.358,0,0,0,3.55.015l1.778,1.1a2.418,2.418,0,0,0,1.761,3.127Zm-5.326-3.68a2.567,2.567,0,1,0,2.527,2.6.347.347,0,0,0,0-.037.343.343,0,0,0,0-.037A2.582,2.582,0,0,0,102.993,100.444Zm0,4.508a1.942,1.942,0,1,1,1.913-1.942A1.945,1.945,0,0,1,102.993,104.952Z" transform="translate(139.006 -78.01)"/>
  </g>
</svg>
