<svg xmlns="http://www.w3.org/2000/svg" xmlns:xlink="http://www.w3.org/1999/xlink" width="20" height="20" viewBox="0 0 20 20">
  <defs>
    <style>
      .cls-1 {
        fill: url(#linear-gradient);
      }

      .cls-2 {
        fill: #fff;
      }
    </style>
    <linearGradient id="linear-gradient" x1="0.5" y1="1" x2="0.431" gradientUnits="objectBoundingBox">
      <stop offset="0" stop-color="#0879eb"/>
      <stop offset="1" stop-color="#26d1ff"/>
    </linearGradient>
  </defs>
  <g id="运输" transform="translate(-1391 -15)">
    <circle id="椭圆_9" data-name="椭圆 9" class="cls-1" cx="10" cy="10" r="10" transform="translate(1391 15)"/>
    <g id="组_64" data-name="组 64" transform="translate(1395 20)">
      <path id="联合_9" data-name="联合 9" class="cls-2" d="M8.078,8.137A1.623,1.623,0,1,1,9.7,9.76,1.625,1.625,0,0,1,8.078,8.137Zm.613,0A1.01,1.01,0,1,0,9.7,7.127,1.011,1.011,0,0,0,8.691,8.137Zm-6.785,0A1.623,1.623,0,1,1,3.53,9.76,1.625,1.625,0,0,1,1.907,8.137Zm.614,0a1.01,1.01,0,1,0,1.01-1.01A1.011,1.011,0,0,0,2.52,8.137ZM.307,7.466A.306.306,0,0,1,0,7.16V.307A.307.307,0,0,1,.306,0H7.581a.306.306,0,0,1,.306.307V1.465H9.7a.308.308,0,0,1,.237.112l1.993,2.431A.309.309,0,0,1,12,4.2V6.61a.306.306,0,0,1-.613,0V4.58H8.914a.307.307,0,0,1,0-.613H11.1L9.556,2.078H7.887V7.145a.306.306,0,0,1-.306.307H5.46a.307.307,0,1,1,0-.613H7.274V1.813a.309.309,0,0,1,0-.389V.613H.614v6.24h.909a.307.307,0,1,1,0,.613ZM1.663,4.532A.308.308,0,0,1,1.73,4.2L4.294,1.634a.307.307,0,0,1,.434.434L2.164,4.631a.306.306,0,0,1-.217.09h0A.307.307,0,0,1,1.663,4.532ZM1.23,2.9A.307.307,0,0,1,1.3,2.567L2.629,1.235a.307.307,0,0,1,.434.434L1.73,3a.306.306,0,0,1-.217.09h0A.306.306,0,0,1,1.23,2.9Z"/>
    </g>
  </g>
</svg>
